<?xml version="1.0" encoding="utf-8"?>
<!-- Generator: Adobe Illustrator 17.0.0, SVG Export Plug-In . SVG Version: 6.00 Build 0)  -->
<!DOCTYPE svg PUBLIC "-//W3C//DTD SVG 1.1//EN" "http://www.w3.org/Graphics/SVG/1.1/DTD/svg11.dtd">
<svg version="1.1" id="Layer_1" xmlns="http://www.w3.org/2000/svg" xmlns:xlink="http://www.w3.org/1999/xlink" x="0px" y="0px"
	 width="700px" height="700px" viewBox="0 0 700 700" enable-background="new 0 0 700 700" xml:space="preserve">
<path d="M700,590v110H0V589c38.6-20.8,67.6-40.6,106.2-61.3c10.7-5.7,21.5-11.1,33.8-12.8c0.7-0.1,18-6.3,35.4-18.1
	c12.9-8.7,27.4-23.9,27.4-24.5c0.6-15.8,1.5-31.6,1.2-47.4c-0.1-6.5-2.3-13.1-4.2-19.5c-4.1-13.9-5.8-28.2-6.4-42.6
	c-0.1-3.1-0.8-5.1-4-6.5c-5.1-2.3-6.6-8.8-5.2-16c0.6-2.9,0.1-6.1-0.4-9.1c-2.8-16.5-5.9-33-8.8-49.5c-0.9-5.3-1-10.7-2.3-15.9
	c-2.4-9.6,1.4-14.1,11-12.4c1.1,0.2,2.2,0.3,4.3,0.6c-0.7-3.4-1.1-6.3-1.9-9.1c-6.2-19.3-8.7-38.8-4.6-58.9
	c2.7-13.2,4.5-26.7,7.6-39.8c5.6-23.4,15.9-44.7,32.5-62.6c9.8-10.5,21.2-18.8,33.7-25.6c10.7-5.8,21.3-12.3,32.5-16.9
	c19-7.9,38.2-15.8,59.4-15.8c0.7,0,1.3,0,2,0c0.7,0,1.3,0,2,0c21.2,0,40.4,7.9,59.4,15.8c11.3,4.7,21.8,11.1,32.5,16.9
	c12.6,6.8,24,15.1,33.7,25.6c16.6,17.8,26.9,39.1,32.5,62.6c3.2,13.1,4.9,26.6,7.6,39.8c4.2,20.1,1.7,39.6-4.6,58.9
	c-0.9,2.8-1.2,5.7-2,9.1c2-0.3,3.2-0.4,4.3-0.6c9.6-1.7,13.4,2.8,11,12.4c-1.3,5.2-1.4,10.6-2.3,15.9c-2.9,16.5-5.9,33-8.8,49.5
	c-0.5,3-1,6.2-0.4,9.1c1.4,7.2-0.1,13.8-5.2,16c-3.3,1.4-3.9,3.4-4,6.5c-0.6,14.4-2.3,28.7-6.4,42.6c-1.9,6.4-4.1,13-4.2,19.5
	c-0.2,15.8,0.6,31.6,1.2,47.4c0,0.6,14.5,15.7,27.4,24.5c17.4,11.8,34.7,18,35.4,18.1c12.3,1.6,23.1,7,33.8,12.8
	C631,548.4,661.4,569.2,700,590z"/>
</svg>
